<?xml version="1.0" encoding="utf-8"?>
<!-- Generator: Adobe Illustrator 21.0.2, SVG Export Plug-In . SVG Version: 6.00 Build 0)  -->
<svg version="1.1" id="Layer_1" xmlns="http://www.w3.org/2000/svg" xmlns:xlink="http://www.w3.org/1999/xlink" x="0px" y="0px"
	 viewBox="0 0 205.6 89.1" style="enable-background:new 0 0 205.6 89.1;" xml:space="preserve">
<style type="text/css">
	.st0{fill:#FF5722;stroke:#FFFFFF;stroke-width:4;stroke-miterlimit:10;}
	.st1{fill:#FF5722;stroke:#FFFFFF;stroke-width:4;stroke-linecap:round;stroke-linejoin:round;}
	.st2{fill:#64FFDA;stroke:#FFFFFF;stroke-width:4;stroke-linecap:round;stroke-linejoin:round;}
	.st3{fill:#FFFFFF;stroke:#FFFFFF;stroke-width:4;stroke-miterlimit:10;}
	.st4{fill:none;stroke:#F15A24;stroke-width:3;stroke-linecap:round;stroke-linejoin:round;}
	.st5{fill:#64FFDA;stroke:#FFFFFF;stroke-width:4;stroke-miterlimit:10;}
	.st6{fill:none;}
	.st7{fill:#FFFFFF;stroke:#FFFFFF;stroke-width:4;stroke-linecap:round;stroke-linejoin:round;}
</style>
<path class="st0" d="M190,64.3c-4.1,2.9-9.5,3.1-13.8,0.5l-0.2-0.2c-2.2-1.9-3.7-4.3-4.6-7.1c-3.3-10.4-6.6-21.5-8.9-29.5l0,0
	c-0.3-1.6-0.4-3.2-0.4-4.8c0-11.5,9.3-20.7,20.8-20.7c11.5,0,20.7,9.3,20.7,20.8c0,2.2-0.4,4.5-1.1,6.6v-0.1
	c-2.2,7.8-5.3,18.1-8.4,27.8c-0.8,2.8-2.5,5.2-4.6,7.1"/>
<circle class="st1" cx="182.9" cy="80.1" r="6.9"/>
<title>Asset 10</title>
<g>
	<g>
		<path class="st2" d="M174.6,73.6c2.7,0.9,4.7,3.5,4.7,6.5c0,3.8-3.1,6.9-6.9,6.9c-3,0-5.5-1.9-6.4-4.5l-0.3-0.9l-1.3,0.9
			c-12.6,8.3-29.6,4.7-37.8-7.9s-4.7-29.6,7.9-37.8s29.6-4.7,37.8,7.9c5.3,8.1,5.9,18.5,1.6,27.2l-0.6,1.2L174.6,73.6z"/>
	</g>
	<ellipse transform="matrix(0.9942 -0.1078 0.1078 0.9942 -5.5622 16.4852)" class="st3" cx="149.7" cy="59.7" rx="4" ry="4"/>
</g>
<path class="st4" d="M190.1,83"/>
<path class="st5" d="M68.5,43.5v31.9c0,6.4,4.9,11.7,10.9,11.7h6.1C91.3,87,96,82,96,75.9V61.8h8.5v14.1c0,6.2,4.7,11.2,10.4,11.2
	h5.1c6,0,10.9-5.3,10.9-11.7v-24c0-8.7-8.1-18.7-16.9-18.7H95.5V13.9c0-6.6-5.4-11.9-12-11.9c0,0,0,0,0,0h-2.5
	c-6.9,0-12.5,5.5-12.5,12.4V43.5"/>
<path class="st1" d="M41,62h5c0,0,0.5,2,0.7,2.8l2.5,10.4C50.8,82.2,57,87,64.1,87h1.4c7.7,0,14-6.2,14.1-13.9
	c0-1.3-0.2-2.7-0.5-3.9c-3.8-13.3-9.3-32-14.8-49.3C60.8,9.5,52.3,2.5,41.5,2.5H41c-10.8,0-20.3,7-23.6,17.3
	c-5.5,17.4-11,36.1-14.8,49.3c-2.1,7.4,2.2,15.2,9.6,17.3c1.3,0.4,2.6,0.5,3.9,0.5h1.4c7.1,0,13.3-4.8,14.9-11.7l2.5-10.4
	c0.2-0.9,0.7-2.8,0.7-2.8h6"/>
<path class="st6" d="M40.1,47H45l-2.5-11.6c-0.2-1-1-1.7-2-1.8l0,0c-1,0-1.8,0.8-2,1.8L36,47h5"/>
<path class="st7" d="M40.5,46.2h3.3l-1.7-7.7c-0.1-0.7-0.7-1.2-1.3-1.2l0,0c-0.7,0-1.2,0.5-1.3,1.2l-1.7,7.7h3.3"/>
</svg>
