<svg xmlns="http://www.w3.org/2000/svg" viewBox="0 0 205.64 89.07"><defs><style>.cls-1,.cls-2{fill:#fff;}.cls-1,.cls-2,.cls-3,.cls-6{stroke:#ff8a50;stroke-width:4px;}.cls-1,.cls-4,.cls-6{stroke-linecap:round;stroke-linejoin:round;}.cls-2,.cls-3{stroke-miterlimit:10;}.cls-3{fill:#64ffda;}.cls-4,.cls-6{fill:none;}.cls-4{stroke:#f15a24;stroke-width:3px;}.cls-5{fill:#ff7043;}</style></defs><title>Asset 10</title><g id="Layer_2" data-name="Layer 2"><g id="Layer_1-2" data-name="Layer 1"><circle class="cls-1" cx="182.89" cy="80.13" r="6.87"/><path class="cls-2" d="M190,64.35a12.55,12.55,0,0,1-13.79.46l-.16-.18a15.35,15.35,0,0,1-4.58-7.06c-3.31-10.36-6.59-21.54-8.86-29.47v0a25.44,25.44,0,0,1-.44-4.82,20.75,20.75,0,1,1,40.42,6.64l0-.09c-2.24,7.78-5.29,18.13-8.37,27.78a15.33,15.33,0,0,1-4.65,7.11"/><path class="cls-2" d="M162.72,82.56A27.32,27.32,0,1,1,172.2,71.9a8.47,8.47,0,0,1,5.26,3.77,7.85,7.85,0,0,1,.73,6.73c-1.52,3.79-5.82,4.5-6.31,4.58A9.6,9.6,0,0,1,162.72,82.56Z"/><circle class="cls-3" cx="147.62" cy="59.72" r="5.8" transform="translate(-5.58 16.28) rotate(-6.19)"/><path class="cls-4" d="M190.09,83"/><path class="cls-2" d="M68.51,43.51V74.84c0,6.41,4.91,11.66,10.92,11.66h6.14c5.77,0,10.44-5,10.44-11.15V61.76h8.5V75.35c0,6.16,4.68,11.15,10.44,11.15h5.14c6,0,10.92-5.25,10.92-11.66V51.36c0-8.7-8.14-18.72-16.94-18.72H95.51V13.86A11.93,11.93,0,0,0,83.51,2H81.06A12.51,12.51,0,0,0,68.51,14.4V43.51"/><path class="cls-1" d="M41,62h5s.46,1.95.67,2.83l2.52,10.45A15.29,15.29,0,0,0,64.06,87h1.42A14,14,0,0,0,79,69.12c-3.8-13.27-9.29-32-14.83-49.35C60.85,9.48,52.28,2.5,41.48,2.5H41A24.83,24.83,0,0,0,17.38,19.78c-5.54,17.35-11,36.08-14.83,49.35A14,14,0,0,0,16,87h1.42A15.29,15.29,0,0,0,32.33,75.28l2.52-10.45c.21-.88.67-2.83.67-2.83h6"/><path class="cls-5" d="M40.07,47H45L42.52,35.38a2.07,2.07,0,0,0-2-1.76h0a2.07,2.07,0,0,0-2,1.76L36,47H41"/><path class="cls-6" d="M40.07,47H45L42.52,35.38a2.07,2.07,0,0,0-2-1.76h0a2.07,2.07,0,0,0-2,1.76L36,47H41"/></g></g></svg>