<?xml version="1.0" standalone="no"?>
<!DOCTYPE svg PUBLIC "-//W3C//DTD SVG 20010904//EN"
 "http://www.w3.org/TR/2001/REC-SVG-20010904/DTD/svg10.dtd">
<svg version="1.0" xmlns="http://www.w3.org/2000/svg"
 width="1024.000000pt" height="1024.000000pt" viewBox="0 0 1024.000000 1024.000000"
 preserveAspectRatio="xMidYMid meet">
<metadata>
Created by potrace 1.11, written by Peter Selinger 2001-2013
</metadata>
<g transform="translate(0.000000,1024.000000) scale(0.100000,-0.100000)"
fill="#000000" stroke="none">
<path d="M4770 10229 c-1898 -131 -3566 -1304 -4339 -3052 -225 -507 -382
-1135 -414 -1657 -6 -87 -2 -79 23 43 l11 57 2000 0 1999 0 -24 63 c-46 122
-129 271 -217 387 -63 84 -211 232 -279 281 -24 18 -53 41 -64 51 -25 23 -130
85 -221 131 -302 151 -723 195 -1061 111 -27 -7 -49 28 -98 162 -21 54 -66
173 -101 264 -145 379 -185 485 -185 491 0 4 10 9 23 12 12 2 56 14 97 25 73
19 158 37 310 64 103 18 558 18 660 0 264 -47 403 -84 630 -167 77 -28 301
-140 388 -194 81 -49 254 -178 260 -193 2 -5 8 -8 13 -8 14 0 43 -27 188 -171
146 -147 171 -174 171 -189 0 -5 3 -10 8 -10 4 0 25 -26 47 -56 l40 -56 3 531
2 531 480 0 480 0 2 -531 3 -531 40 56 c22 30 43 56 48 56 4 0 7 4 7 10 0 16
37 57 171 190 137 135 175 170 184 170 4 0 12 6 19 13 13 12 26 23 129 101
102 79 292 184 472 261 140 61 351 124 525 159 190 38 229 41 480 41 252 0
279 -2 485 -42 122 -23 325 -82 475 -138 78 -29 302 -141 388 -194 81 -49 254
-178 260 -193 2 -5 8 -8 13 -8 13 0 41 -25 188 -170 122 -122 171 -174 171
-186 0 -3 6 -11 13 -18 12 -13 23 -26 101 -129 114 -148 248 -415 324 -642 60
-179 72 -230 122 -490 16 -83 2 116 -21 295 -184 1470 -1001 2792 -2234 3615
-762 508 -1603 793 -2523 855 -177 12 -491 11 -672 -1z"/>
<path d="M7515 6679 c-178 -19 -376 -74 -520 -146 -91 -46 -196 -108 -221
-131 -11 -10 -40 -33 -64 -51 -68 -49 -216 -197 -279 -281 -88 -116 -171 -265
-217 -387 l-24 -63 1490 0 1490 0 -24 63 c-46 122 -129 271 -217 387 -63 84
-211 232 -279 281 -24 18 -53 41 -64 51 -25 23 -130 85 -221 131 -242 121
-562 176 -850 146z"/>
<path d="M10231 5324 c0 -11 3 -14 6 -6 3 7 2 16 -1 19 -3 4 -6 -2 -5 -13z"/>
<path d="M1 4914 c0 -11 3 -14 6 -6 3 7 2 16 -1 19 -3 4 -6 -2 -5 -13z"/>
<path d="M16 4730 c3 -52 14 -165 25 -250 213 -1717 1289 -3213 2854 -3970
1337 -647 2894 -679 4260 -88 1658 718 2822 2269 3044 4058 35 282 36 368 1
198 l-11 -58 -2000 0 -1999 0 24 -63 c113 -300 343 -580 630 -765 312 -202
723 -282 1106 -216 47 8 94 17 106 20 27 7 49 -28 98 -162 21 -54 66 -173 101
-264 160 -420 187 -491 184 -494 -2 -2 -22 -8 -44 -14 -22 -5 -65 -17 -95 -25
-30 -8 -122 -28 -205 -43 -141 -27 -167 -28 -415 -29 -250 0 -274 2 -415 29
-202 38 -345 78 -545 151 -71 26 -288 133 -370 183 -77 46 -272 189 -278 204
-2 4 -8 8 -13 8 -14 0 -43 27 -188 171 -146 147 -171 174 -171 189 0 5 -3 10
-7 10 -5 0 -26 26 -48 56 l-40 56 -3 -531 -2 -531 -480 0 -480 0 -2 531 -3
531 -40 -56 c-22 -30 -43 -56 -47 -56 -5 0 -8 -5 -8 -10 0 -15 -25 -42 -171
-189 -145 -144 -174 -171 -188 -171 -5 0 -11 -4 -13 -8 -6 -15 -201 -158 -278
-204 -41 -25 -124 -69 -185 -98 -60 -28 -118 -56 -127 -61 -32 -17 -130 -51
-273 -95 -122 -39 -168 -50 -330 -80 -141 -27 -166 -29 -415 -29 -249 0 -274
2 -415 29 -82 15 -172 34 -200 41 -60 16 -282 86 -345 110 -72 27 -289 134
-370 183 -77 46 -272 189 -278 204 -2 4 -8 8 -13 8 -14 0 -43 27 -188 171
-134 135 -171 175 -171 184 0 4 -6 12 -12 19 -13 13 -24 26 -102 129 -114 148
-248 415 -324 642 -60 179 -74 238 -122 490 -7 41 -8 32 -4 -45z"/>
<path d="M1094 4557 c113 -300 343 -580 630 -765 271 -175 635 -264 961 -234
395 37 700 177 979 450 158 156 288 351 362 549 l24 63 -1490 0 -1490 0 24
-63z"/>
</g>
</svg>
